<svg version="1.1" xmlns="http://www.w3.org/2000/svg" viewBox="0 0 1206.3070959791542 665.5999999999999" width="1206.3070959791542" height="665.5999999999999">
  <!-- svg-source:excalidraw -->
  
  <defs>
    <style class="style-fonts">
      @font-face {
        font-family: "Virgil";
        src: url("https://excalidraw.com/Virgil.woff2");
      }
      @font-face {
        font-family: "Cascadia";
        src: url("https://excalidraw.com/Cascadia.woff2");
      }
    </style>
    
  </defs>
  <rect x="0" y="0" width="1206.3070959791542" height="665.5999999999999" fill="#ffffff"></rect><g stroke-linecap="round" transform="translate(86.5 62) rotate(0 52.5 26.5)"><path d="M1.66 5.41 C1.66 5.41, 1.66 5.41, 1.66 5.41 M1.66 5.41 C1.66 5.41, 1.66 5.41, 1.66 5.41 M1.39 11.81 C2.64 10.36, 5.25 7.52, 7.95 4.27 M1.39 11.81 C3.1 10.39, 4.2 8.67, 7.95 4.27 M1.79 17.46 C5.51 12.17, 12.89 6.24, 15.57 1.61 M1.79 17.46 C4.24 14.13, 8.62 10.97, 15.57 1.61 M1.53 23.85 C5.28 20.81, 7.92 13.13, 20.55 1.97 M1.53 23.85 C5.57 18.06, 12.2 12.34, 20.55 1.97 M1.92 29.5 C6.55 19.92, 13.56 12.89, 26.2 1.57 M1.92 29.5 C8.2 21.81, 15.32 13.43, 26.2 1.57 M1.66 35.89 C10.83 25.87, 16.8 17.49, 31.18 1.93 M1.66 35.89 C9.21 26.96, 18.25 17.27, 31.18 1.93 M0.74 43.05 C12.21 30.2, 21.36 17.45, 36.83 1.54 M0.74 43.05 C8.97 35.68, 16.32 26.3, 36.83 1.54 M1.79 47.93 C11.58 39.6, 19.59 29.19, 41.81 1.9 M1.79 47.93 C11.22 37.47, 19.05 27.98, 41.81 1.9 M4.81 50.56 C17.59 35.45, 31.45 17.71, 47.46 1.5 M4.81 50.56 C17.59 34.9, 31.3 18.32, 47.46 1.5 M7.83 53.18 C25.94 33.52, 40.07 17.5, 52.44 1.86 M7.83 53.18 C17.9 40.15, 29.11 27.49, 52.44 1.86 M13.47 52.79 C27.14 37, 40.92 19.68, 58.09 1.47 M13.47 52.79 C31.64 30.92, 48.27 11.15, 58.09 1.47 M18.46 53.15 C33.81 34.32, 51.4 15.2, 63.07 1.83 M18.46 53.15 C29.35 41.84, 38.78 30.68, 63.07 1.83 M24.1 52.75 C33.99 38.94, 45.38 26.04, 68.06 2.19 M24.1 52.75 C36.53 38.32, 49.48 23.13, 68.06 2.19 M29.09 53.11 C42.78 39.67, 53.2 24.46, 73.7 1.79 M29.09 53.11 C42.35 38.38, 54.71 23.94, 73.7 1.79 M34.73 52.72 C51.93 34.45, 67.96 16.03, 78.69 2.15 M34.73 52.72 C48.65 37.04, 62.45 20.29, 78.69 2.15 M39.72 53.08 C56.33 34.73, 74.25 16.22, 84.33 1.76 M39.72 53.08 C49.54 41.71, 61.7 27.94, 84.33 1.76 M45.36 52.69 C59.44 38.03, 70.2 24.45, 89.32 2.12 M45.36 52.69 C55.7 41.21, 65.18 29.46, 89.32 2.12 M50.35 53.05 C66.36 34.62, 82.23 16.81, 94.31 2.48 M50.35 53.05 C64.55 36.37, 80.15 18.18, 94.31 2.48 M55.99 52.65 C69.97 37.85, 80.6 23.62, 99.95 2.09 M55.99 52.65 C70.44 36.45, 83.59 18.92, 99.95 2.09 M60.98 53.01 C76.05 34.61, 91.24 18.67, 102.97 4.71 M60.98 53.01 C75.39 37.14, 87.21 21.58, 102.97 4.71 M65.97 53.37 C77.08 38.83, 90.34 26.58, 105.99 7.33 M65.97 53.37 C77.62 40.55, 89.09 27.33, 105.99 7.33 M71.61 52.98 C78.77 46.12, 85.78 36.54, 107.04 12.22 M71.61 52.98 C78.38 45.67, 86.56 35.91, 107.04 12.22 M76.6 53.34 C85.06 46.13, 92.37 35.16, 107.43 17.87 M76.6 53.34 C85.9 41.68, 97.9 29.67, 107.43 17.87 M82.24 52.94 C89.35 46.79, 93.47 37.84, 107.17 24.26 M82.24 52.94 C88.74 45.41, 95.13 38.81, 107.17 24.26 M87.23 53.3 C91.51 47.35, 97.55 39.75, 106.91 30.66 M87.23 53.3 C93.21 45.84, 98.13 39.84, 106.91 30.66 M92.22 53.66 C97.55 48.35, 101.35 39.17, 107.31 36.3 M92.22 53.66 C97.5 46.96, 104.53 40.48, 107.31 36.3 M99.17 51.76 C101.23 49.06, 104.23 46.62, 107.7 41.95 M99.17 51.76 C101.52 48.7, 104.01 46.03, 107.7 41.95" stroke="#ffec99" stroke-width="0.5" fill="none"></path><path d="M13.25 0 M13.25 0 C43.37 0.43, 76.78 -0.43, 91.75 0 M13.25 0 C33.53 -1.59, 55.08 -0.78, 91.75 0 M91.75 0 C101.26 1.06, 106.7 4.84, 105 13.25 M91.75 0 C101.53 -1.97, 104.45 6.43, 105 13.25 M105 13.25 C104.32 21.6, 106.33 30.32, 105 39.75 M105 13.25 C105.66 19.08, 105.95 26.88, 105 39.75 M105 39.75 C105.28 50.3, 99.21 51.06, 91.75 53 M105 39.75 C106.87 46.33, 99.33 51.25, 91.75 53 M91.75 53 C66.78 51.61, 46.68 51.58, 13.25 53 M91.75 53 C70.83 53.82, 50.54 54.69, 13.25 53 M13.25 53 C2.8 54.56, -0.86 50.1, 0 39.75 M13.25 53 C5.36 54.35, 2.28 46.59, 0 39.75 M0 39.75 C-0.82 32.07, 1.18 24.04, 0 13.25 M0 39.75 C-0.86 31.27, 0.91 25.09, 0 13.25 M0 13.25 C1.65 5.76, 2.57 -1.8, 13.25 0 M0 13.25 C2.08 6.07, 5.44 1.17, 13.25 0" stroke="#1e1e1e" stroke-width="1" fill="none"></path></g><g transform="translate(115.5625 76.5) rotate(0 23.4375 12)"><text x="23.4375" y="0" font-family="Cascadia, Segoe UI Emoji" font-size="20px" fill="#1e1e1e" text-anchor="middle" style="white-space: pre;" direction="ltr" dominant-baseline="text-before-edge">main</text></g><g stroke-linecap="round" transform="translate(33 198.5) rotate(0 77.5 17)"><path d="M2.26 1.97 C2.26 1.97, 2.26 1.97, 2.26 1.97 M2.26 1.97 C2.26 1.97, 2.26 1.97, 2.26 1.97 M1.35 9.12 C3.44 4.36, 7.07 1.49, 9.22 0.06 M1.35 9.12 C3.89 5.83, 6.3 2.31, 9.22 0.06 M1.08 15.52 C7.33 7.83, 9.16 5.76, 14.2 0.42 M1.08 15.52 C5.86 9.93, 10.03 4.65, 14.2 0.42 M1.48 21.16 C3.45 15.76, 7.88 13.32, 19.19 0.78 M1.48 21.16 C7.27 15.69, 12.9 8.99, 19.19 0.78 M1.22 27.56 C12.37 15.23, 18.32 4.6, 24.83 0.39 M1.22 27.56 C10.52 18.76, 18.49 9.4, 24.83 0.39 M2.92 31.69 C12.87 19.71, 23.28 11.6, 29.82 0.75 M2.92 31.69 C12.39 21.16, 21.9 10.96, 29.82 0.75 M5.94 34.32 C13.41 23.86, 21.44 14.8, 35.46 0.35 M5.94 34.32 C16.79 23.1, 27.58 9.59, 35.46 0.35 M10.93 34.68 C19.06 25.72, 30.16 15.85, 40.45 0.71 M10.93 34.68 C21.31 22.37, 33.24 9.9, 40.45 0.71 M16.57 34.28 C24.26 27.8, 29.1 21.79, 46.1 0.32 M16.57 34.28 C26.4 24.92, 34.17 13.97, 46.1 0.32 M21.56 34.64 C34.17 21.26, 41.76 8.22, 51.08 0.68 M21.56 34.64 C32.75 21.51, 45.27 7.85, 51.08 0.68 M27.2 34.25 C35.79 25.37, 43.06 13.39, 56.73 0.28 M27.2 34.25 C36.96 23.79, 47.07 11.37, 56.73 0.28 M32.19 34.61 C38.08 27.3, 47.58 18.15, 61.71 0.65 M32.19 34.61 C40.57 25.61, 47.51 18.16, 61.71 0.65 M37.83 34.21 C49.19 19.88, 60.09 6.84, 67.36 0.25 M37.83 34.21 C48.36 23.68, 57.49 12.62, 67.36 0.25 M42.82 34.57 C52.13 24.19, 60.27 14.07, 72.34 0.61 M42.82 34.57 C51.68 24.83, 59.55 16.38, 72.34 0.61 M47.81 34.93 C53.82 26.86, 60.13 17.28, 77.33 0.97 M47.81 34.93 C59.28 22.17, 69.41 11.05, 77.33 0.97 M53.45 34.54 C62.72 21.27, 76.76 8.76, 82.97 0.58 M53.45 34.54 C60.22 25.86, 68.48 16.65, 82.97 0.58 M58.44 34.9 C68.08 23.27, 80.71 9.1, 87.96 0.94 M58.44 34.9 C65.46 28, 72.07 20.36, 87.96 0.94 M64.08 34.5 C75.51 21.76, 88.07 9, 93.6 0.54 M64.08 34.5 C71.82 27.33, 78.85 17.95, 93.6 0.54 M69.07 34.86 C77.63 29.15, 84.14 17.44, 98.59 0.9 M69.07 34.86 C79.33 23.08, 91.16 10.75, 98.59 0.9 M74.71 34.47 C81.01 24.78, 89.08 15.19, 104.23 0.51 M74.71 34.47 C86.31 20.85, 97.4 7.87, 104.23 0.51 M79.7 34.83 C91.68 21.33, 100.6 8.42, 109.22 0.87 M79.7 34.83 C87.98 24.7, 97.53 15.4, 109.22 0.87 M85.34 34.43 C92.29 26.28, 101.97 17.93, 114.86 0.47 M85.34 34.43 C92.71 24.91, 102.42 14.92, 114.86 0.47 M90.33 34.79 C98.05 26.62, 104.38 17.85, 119.85 0.83 M90.33 34.79 C102.38 22.32, 113.54 8.17, 119.85 0.83 M95.97 34.4 C103.8 24.54, 111.23 14.87, 124.84 1.19 M95.97 34.4 C107.7 22.66, 117.21 9.1, 124.84 1.19 M100.96 34.76 C112.17 20.78, 123.83 11.42, 130.48 0.8 M100.96 34.76 C110.1 23.51, 118.59 13.86, 130.48 0.8 M105.94 35.12 C112.81 27.57, 121.83 15.53, 135.47 1.16 M105.94 35.12 C112.29 27.84, 118.95 19.42, 135.47 1.16 M111.59 34.73 C117.99 28.97, 123.21 21.17, 141.11 0.76 M111.59 34.73 C122.04 22.24, 133.11 8.95, 141.11 0.76 M116.57 35.09 C124.22 29.28, 130.17 19.45, 146.1 1.12 M116.57 35.09 C123.17 26.94, 130.63 19.89, 146.1 1.12 M122.22 34.69 C132.19 22.14, 141.77 14.13, 151.08 1.48 M122.22 34.69 C132.66 21.84, 143.23 9.62, 151.08 1.48 M127.2 35.05 C136.76 26.64, 145.22 13.59, 154.1 4.11 M127.2 35.05 C135.22 27.14, 142.03 18.91, 154.1 4.11 M132.85 34.66 C141.93 26.01, 147.92 17.8, 157.12 6.73 M132.85 34.66 C140.39 24.62, 150 14.95, 157.12 6.73 M137.83 35.02 C142.48 30.7, 145.35 25.24, 156.86 13.13 M137.83 35.02 C143.36 29.12, 148.71 22.38, 156.86 13.13 M143.48 34.62 C147.17 28.69, 153.56 24.58, 157.25 18.77 M143.48 34.62 C146.95 30.44, 151.86 25.79, 157.25 18.77 M147.81 35.74 C152 30.58, 153.42 27.28, 156.99 25.17 M147.81 35.74 C150.68 33.44, 152.61 29.86, 156.99 25.17" stroke="#ffec99" stroke-width="0.5" fill="none"></path><path d="M8.5 0 M8.5 0 C35 -0.76, 64.12 -1.4, 146.5 0 M8.5 0 C46.98 -1.56, 87.15 -0.47, 146.5 0 M146.5 0 C152.11 1, 153.75 3.45, 155 8.5 M146.5 0 C151.23 0.4, 156.44 3, 155 8.5 M155 8.5 C156.09 16.31, 154.68 20.77, 155 25.5 M155 8.5 C155.61 12.79, 154.75 16.25, 155 25.5 M155 25.5 C153.18 32.39, 152.35 32.16, 146.5 34 M155 25.5 C156.01 29.98, 152.36 35.79, 146.5 34 M146.5 34 C99.85 33.13, 50.79 36.09, 8.5 34 M146.5 34 C101.28 33.37, 56.79 32.9, 8.5 34 M8.5 34 C3.06 35.58, 0.35 32.18, 0 25.5 M8.5 34 C1.9 35.99, 1.54 29.84, 0 25.5 M0 25.5 C1.35 21.08, 0.06 15.77, 0 8.5 M0 25.5 C-0.63 20.7, -0.24 16.44, 0 8.5 M0 8.5 C1.67 4.82, 3.67 1.98, 8.5 0 M0 8.5 C2.26 0.62, 1.78 2.1, 8.5 0" stroke="#1e1e1e" stroke-width="1" fill="none"></path></g><g transform="translate(40.1875 203.5) rotate(0 70.3125 12)"><text x="70.3125" y="0" font-family="Cascadia, Segoe UI Emoji" font-size="20px" fill="#1e1e1e" text-anchor="middle" style="white-space: pre;" direction="ltr" dominant-baseline="text-before-edge">a-fix-branch</text></g><g stroke-linecap="round" transform="translate(10 289.5) rotate(0 90.5 22.5)"><path d="M2.99 2.6 C2.99 2.6, 2.99 2.6, 2.99 2.6 M2.99 2.6 C2.99 2.6, 2.99 2.6, 2.99 2.6 M0.76 11.27 C3.94 5.78, 6.64 1.79, 9.95 0.7 M0.76 11.27 C4.15 8.19, 6.73 4.62, 9.95 0.7 M0.5 17.66 C4.73 11.42, 11.01 6.53, 13.62 2.57 M0.5 17.66 C2.89 13.38, 6.61 10.03, 13.62 2.57 M0.9 23.31 C7.7 17.11, 14.48 8.49, 19.27 2.17 M0.9 23.31 C5.61 19.12, 10.1 13.6, 19.27 2.17 M0.64 29.7 C3.64 24.03, 12.16 17.45, 24.25 2.53 M0.64 29.7 C9.16 19.46, 17.7 9.76, 24.25 2.53 M1.03 35.35 C12.06 23.12, 23.32 7.68, 29.9 2.14 M1.03 35.35 C8.68 27.11, 17.28 18.61, 29.9 2.14 M2.08 40.24 C9.55 31.32, 14.31 25.58, 34.88 2.5 M2.08 40.24 C15.68 25.31, 28.36 10.22, 34.88 2.5 M5.1 42.86 C19.35 27.23, 33.5 10.11, 40.53 2.11 M5.1 42.86 C12.56 35.08, 19.16 27.06, 40.53 2.11 M8.12 45.48 C19.36 34.03, 26.97 24.07, 45.51 2.47 M8.12 45.48 C21.45 29.91, 34.26 15.56, 45.51 2.47 M13.11 45.84 C23.44 35.75, 33.14 25.52, 51.16 2.07 M13.11 45.84 C24.05 33.77, 34.11 22.49, 51.16 2.07 M18.75 45.45 C32.86 31.92, 45.6 14.2, 56.14 2.43 M18.75 45.45 C31.67 31.8, 43.64 16.19, 56.14 2.43 M23.74 45.81 C36.33 31.36, 46.06 19.8, 61.13 2.79 M23.74 45.81 C37.46 29.33, 51.16 14.36, 61.13 2.79 M29.38 45.41 C40.37 36.1, 46.85 26.69, 66.78 2.4 M29.38 45.41 C43.07 30.6, 55.39 14.94, 66.78 2.4 M34.37 45.77 C44.66 31.86, 58.23 17.6, 71.76 2.76 M34.37 45.77 C44.52 34.15, 54.24 23.49, 71.76 2.76 M39.35 46.13 C54.4 30.58, 68.43 10.93, 77.41 2.36 M39.35 46.13 C49.72 34.11, 59.17 24.3, 77.41 2.36 M45 45.74 C57.13 31.49, 64.83 19.67, 82.39 2.72 M45 45.74 C59.38 28.78, 73.65 13.45, 82.39 2.72 M49.98 46.1 C57.42 34.52, 68.89 22.09, 88.04 2.33 M49.98 46.1 C62.32 30.63, 76.37 15.67, 88.04 2.33 M55.63 45.71 C65.69 36.98, 73.7 25.73, 93.02 2.69 M55.63 45.71 C64.04 37.33, 70.82 27.15, 93.02 2.69 M60.61 46.07 C74.16 30, 84.71 16.65, 98.67 2.29 M60.61 46.07 C69.27 36.8, 76.99 27.92, 98.67 2.29 M66.26 45.67 C74.86 36.7, 82.35 23.81, 103.65 2.65 M66.26 45.67 C79.19 31.1, 91.89 14.78, 103.65 2.65 M71.24 46.03 C85.06 31.21, 94.46 17.29, 108.64 3.01 M71.24 46.03 C81.84 33.23, 94.47 20.38, 108.64 3.01 M76.89 45.64 C90.81 30.96, 103.17 12.5, 114.28 2.62 M76.89 45.64 C84.55 35.74, 93.71 25.5, 114.28 2.62 M81.87 46 C88.68 36.34, 100.32 27.75, 119.27 2.98 M81.87 46 C95.65 29.25, 109.43 14.47, 119.27 2.98 M86.86 46.36 C100.01 32.91, 115.24 14.88, 124.91 2.58 M86.86 46.36 C99.83 30.6, 113.3 15.95, 124.91 2.58 M92.5 45.96 C100.57 35.73, 109.47 26.73, 129.9 2.94 M92.5 45.96 C105.68 30.45, 121.47 14.66, 129.9 2.94 M97.49 46.32 C109.13 32.2, 121.29 16.72, 135.54 2.55 M97.49 46.32 C107.93 34.34, 119.33 20.96, 135.54 2.55 M103.13 45.93 C114.44 35.98, 125.09 24.23, 140.53 2.91 M103.13 45.93 C118.61 29.51, 132.69 13.4, 140.53 2.91 M108.12 46.29 C119.19 33.23, 132.8 17.03, 146.17 2.51 M108.12 46.29 C118.9 32.84, 129.46 20.9, 146.17 2.51 M113.76 45.89 C123.59 33.95, 135.7 19.77, 151.16 2.87 M113.76 45.89 C127.28 30.65, 140.4 16.33, 151.16 2.87 M118.75 46.25 C128.85 32.99, 139.63 18.56, 156.15 3.23 M118.75 46.25 C129.56 34.33, 141.14 21.37, 156.15 3.23 M124.39 45.86 C135.07 30.56, 148.17 18.96, 161.79 2.84 M124.39 45.86 C132.41 36.32, 142.36 24.37, 161.79 2.84 M129.38 46.22 C144.45 32.5, 157.06 18.05, 166.78 3.2 M129.38 46.22 C138.37 36.26, 146.7 25.5, 166.78 3.2 M134.37 46.58 C143.96 35.02, 159.33 18.76, 172.42 2.81 M134.37 46.58 C148.25 30.85, 162.14 14.46, 172.42 2.81 M140.01 46.18 C153.64 33.99, 162.78 17.4, 177.41 3.17 M140.01 46.18 C147.69 36.23, 156.32 28.29, 177.41 3.17 M145 46.54 C157.82 29.87, 169.57 17.24, 180.43 5.79 M145 46.54 C152.79 38.69, 160.4 30.7, 180.43 5.79 M150.64 46.15 C163.04 34.22, 172.82 20.59, 183.44 8.41 M150.64 46.15 C161.37 33.77, 171.01 21.18, 183.44 8.41 M155.63 46.51 C164.49 36.25, 171.12 29.44, 183.18 14.81 M155.63 46.51 C166.04 33.83, 178.84 21.76, 183.18 14.81 M161.27 46.12 C169.35 38.01, 175.93 29.79, 182.92 21.21 M161.27 46.12 C169.38 37.13, 175.76 28.23, 182.92 21.21 M166.26 46.48 C169.72 42.31, 174.89 34.07, 183.32 26.85 M166.26 46.48 C169.3 41.07, 174.59 37.31, 183.32 26.85 M171.25 46.84 C176.11 44.35, 177.45 39.18, 183.05 33.25 M171.25 46.84 C175.12 42.73, 180.87 37.59, 183.05 33.25" stroke="#ffec99" stroke-width="0.5" fill="none"></path><path d="M11.25 0 M11.25 0 C66.48 -0.65, 117.58 -1.94, 169.75 0 M11.25 0 C42.59 0.21, 75.3 0.66, 169.75 0 M169.75 0 C178.45 1.11, 181.11 3, 181 11.25 M169.75 0 C176 0.22, 180.16 3.86, 181 11.25 M181 11.25 C180.76 20.53, 182.57 30.69, 181 33.75 M181 11.25 C181.64 20.04, 181.52 27.87, 181 33.75 M181 33.75 C180.8 40.35, 175.49 44.71, 169.75 45 M181 33.75 C180.81 42.74, 176.03 46.38, 169.75 45 M169.75 45 C128.9 45.84, 88.32 45.51, 11.25 45 M169.75 45 C115.2 45.53, 58.9 45.34, 11.25 45 M11.25 45 C3.7 43.14, -1.43 40.79, 0 33.75 M11.25 45 C2.44 46.7, 0.67 43.26, 0 33.75 M0 33.75 C0.1 29.82, 1.22 21.44, 0 11.25 M0 33.75 C0.53 26.13, -0.76 17.75, 0 11.25 M0 11.25 C-1.84 4.61, 2.13 -0.5, 11.25 0 M0 11.25 C-2.03 3.05, 3.39 -2.29, 11.25 0" stroke="#1e1e1e" stroke-width="1" fill="none"></path></g><g transform="translate(18.46875 300) rotate(0 82.03125 12)"><text x="82.03125" y="0" font-family="Cascadia, Segoe UI Emoji" font-size="20px" fill="#1e1e1e" text-anchor="middle" style="white-space: pre;" direction="ltr" dominant-baseline="text-before-edge">my-new-feature</text></g><g stroke-linecap="round" transform="translate(110 417.5) rotate(0 90.5 22.5)"><path d="M2.99 2.6 C2.99 2.6, 2.99 2.6, 2.99 2.6 M2.99 2.6 C2.99 2.6, 2.99 2.6, 2.99 2.6 M0.76 11.27 C4.28 6.85, 6.59 2.62, 9.95 0.7 M0.76 11.27 C3.07 9, 4.94 7.44, 9.95 0.7 M0.5 17.66 C3.76 14.76, 6.21 10.19, 13.62 2.57 M0.5 17.66 C5.34 13.01, 8.7 7.38, 13.62 2.57 M0.9 23.31 C3.79 19.37, 11.59 12.4, 19.27 2.17 M0.9 23.31 C7.52 15.54, 13.13 8.55, 19.27 2.17 M0.64 29.7 C6.97 24.09, 13.78 16.42, 24.25 2.53 M0.64 29.7 C9.95 18.22, 19.52 8.45, 24.25 2.53 M1.03 35.35 C12.25 23.37, 20.65 12.21, 29.9 2.14 M1.03 35.35 C8.11 26.98, 15.44 18.4, 29.9 2.14 M2.08 40.24 C9.09 30.1, 19.52 20.44, 34.88 2.5 M2.08 40.24 C11.78 30.71, 19.76 19.66, 34.88 2.5 M5.1 42.86 C17.42 31.13, 28.86 16.77, 40.53 2.11 M5.1 42.86 C17.7 27.85, 29.72 13.11, 40.53 2.11 M8.12 45.48 C17.15 33.95, 23.63 27.47, 45.51 2.47 M8.12 45.48 C23.06 29.17, 37.03 12.14, 45.51 2.47 M13.11 45.84 C22.17 38.28, 28.37 29.32, 51.16 2.07 M13.11 45.84 C25.41 31.04, 39.64 15.78, 51.16 2.07 M18.75 45.45 C34.13 27.13, 48.95 12.79, 56.14 2.43 M18.75 45.45 C26.96 34.95, 37.11 24.73, 56.14 2.43 M23.74 45.81 C37.89 33.13, 47.61 16.34, 61.13 2.79 M23.74 45.81 C31.25 36.6, 40.75 26.68, 61.13 2.79 M29.38 45.41 C35.85 37.59, 47.6 27.82, 66.78 2.4 M29.38 45.41 C44.42 29.65, 57.18 12.97, 66.78 2.4 M34.37 45.77 C42.37 34, 52.88 27.07, 71.76 2.76 M34.37 45.77 C42.98 36.93, 50.32 28.6, 71.76 2.76 M39.35 46.13 C50.38 35.14, 57.42 22.76, 77.41 2.36 M39.35 46.13 C47.38 35.22, 56 26.71, 77.41 2.36 M45 45.74 C55.91 35.77, 62.94 24.88, 82.39 2.72 M45 45.74 C53.17 35.72, 60.5 27.72, 82.39 2.72 M49.98 46.1 C63.17 31.03, 79.97 14.14, 88.04 2.33 M49.98 46.1 C60.38 33.25, 70.44 21.93, 88.04 2.33 M55.63 45.71 C66.74 35.89, 75.34 24.02, 93.02 2.69 M55.63 45.71 C63.38 34.88, 73.18 25.2, 93.02 2.69 M60.61 46.07 C74.94 30.27, 90.01 11.28, 98.67 2.29 M60.61 46.07 C71.14 33.6, 83.63 19.92, 98.67 2.29 M66.26 45.67 C81.17 28.78, 93.84 13.17, 103.65 2.65 M66.26 45.67 C76.78 31.51, 88.43 18.48, 103.65 2.65 M71.24 46.03 C82.39 35.87, 90.75 23.7, 108.64 3.01 M71.24 46.03 C84.86 30.55, 95.89 17.18, 108.64 3.01 M76.89 45.64 C89.3 28.31, 104.72 12.9, 114.28 2.62 M76.89 45.64 C89.81 30.31, 104.72 14.2, 114.28 2.62 M81.87 46 C90.35 35.1, 98.85 26.5, 119.27 2.98 M81.87 46 C92.88 33.28, 103.4 22.03, 119.27 2.98 M86.86 46.36 C98.85 34.85, 108.21 19.55, 124.91 2.58 M86.86 46.36 C101.52 30.69, 115.91 14.47, 124.91 2.58 M92.5 45.96 C107.91 29.39, 120.18 13.02, 129.9 2.94 M92.5 45.96 C103.89 32.53, 115.12 19.49, 129.9 2.94 M97.49 46.32 C107.42 35.88, 118.96 23.87, 135.54 2.55 M97.49 46.32 C112.66 28.53, 127.44 11.79, 135.54 2.55 M103.13 45.93 C116.59 28.99, 131.48 13.04, 140.53 2.91 M103.13 45.93 C112.57 34.73, 121.82 24.34, 140.53 2.91 M108.12 46.29 C116.63 37.89, 126 26.21, 146.17 2.51 M108.12 46.29 C121.73 29.62, 136.23 15.4, 146.17 2.51 M113.76 45.89 C127.09 29.36, 138.82 14.97, 151.16 2.87 M113.76 45.89 C121.81 36.7, 130.53 28.14, 151.16 2.87 M118.75 46.25 C126.67 35.75, 133.69 30.3, 156.15 3.23 M118.75 46.25 C128.76 36.09, 136.96 24.36, 156.15 3.23 M124.39 45.86 C134.62 34.49, 142.45 23, 161.79 2.84 M124.39 45.86 C138.42 29.97, 152.76 14.21, 161.79 2.84 M129.38 46.22 C142.97 27.85, 156.74 13.02, 166.78 3.2 M129.38 46.22 C141.25 32.96, 154.42 18.34, 166.78 3.2 M134.37 46.58 C145.9 33.21, 154.97 24.05, 172.42 2.81 M134.37 46.58 C149.94 28.57, 163.16 12.94, 172.42 2.81 M140.01 46.18 C147.74 36.46, 157.45 24.65, 177.41 3.17 M140.01 46.18 C153.45 31.86, 165.65 15.27, 177.41 3.17 M145 46.54 C159.81 29.29, 173.37 12.9, 180.43 5.79 M145 46.54 C157.59 30.55, 171.8 16.62, 180.43 5.79 M150.64 46.15 C157.91 37.79, 166.47 30.12, 183.44 8.41 M150.64 46.15 C160.53 35.45, 169.58 25.73, 183.44 8.41 M155.63 46.51 C164.27 37.45, 171.08 29.69, 183.18 14.81 M155.63 46.51 C164.71 37.94, 171.52 27.36, 183.18 14.81 M161.27 46.12 C166.99 38.67, 173.63 33.67, 182.92 21.21 M161.27 46.12 C170.29 37.06, 178.72 26.66, 182.92 21.21 M166.26 46.48 C170.57 40.25, 173.81 37.88, 183.32 26.85 M166.26 46.48 C169.16 41.5, 174.05 36.97, 183.32 26.85 M171.25 46.84 C173.28 41.19, 177.48 37.99, 183.05 33.25 M171.25 46.84 C174.17 44.37, 177.04 40.18, 183.05 33.25" stroke="#ffec99" stroke-width="0.5" fill="none"></path><path d="M11.25 0 M11.25 0 C66.41 -2.71, 121.96 -2.28, 169.75 0 M11.25 0 C52.73 1.67, 95.35 1.17, 169.75 0 M169.75 0 C178.35 -1.35, 181.65 3.01, 181 11.25 M169.75 0 C177.03 0.41, 180.29 1.53, 181 11.25 M181 11.25 C180.31 15.8, 179.37 23.69, 181 33.75 M181 11.25 C181.32 17.72, 180.2 22.93, 181 33.75 M181 33.75 C179.22 42.28, 178.63 44.33, 169.75 45 M181 33.75 C181.15 43.48, 178.65 46.09, 169.75 45 M169.75 45 C119.64 47.89, 69.69 47.66, 11.25 45 M169.75 45 C109.72 44.98, 49.97 44.51, 11.25 45 M11.25 45 C2.94 46.08, -0.8 42.19, 0 33.75 M11.25 45 C3.47 45.67, -1.96 40.44, 0 33.75 M0 33.75 C0.16 29.26, 1.42 22.66, 0 11.25 M0 33.75 C-0.3 28.54, 1.04 24.34, 0 11.25 M0 11.25 C-0.93 2.04, 4.89 -1.54, 11.25 0 M0 11.25 C2.26 5.23, 1.89 0.59, 11.25 0" stroke="#1e1e1e" stroke-width="1" fill="none"></path></g><g transform="translate(118.46875 428) rotate(0 82.03125 12)"><text x="82.03125" y="0" font-family="Cascadia, Segoe UI Emoji" font-size="20px" fill="#1e1e1e" text-anchor="middle" style="white-space: pre;" direction="ltr" dominant-baseline="text-before-edge">release/my-fix</text></g><g stroke-linecap="round" transform="translate(458 549.5) rotate(0 116.5 28)"><path d="M3.73 3.24 C3.73 3.24, 3.73 3.24, 3.73 3.24 M3.73 3.24 C3.73 3.24, 3.73 3.24, 3.73 3.24 M3.47 9.64 C6.59 7.42, 9.11 3.83, 10.03 2.09 M3.47 9.64 C5.1 7.46, 6.47 6.23, 10.03 2.09 M2.55 16.79 C3.67 12.19, 8.76 8.51, 15.67 1.7 M2.55 16.79 C5.77 11.13, 10.26 6.86, 15.67 1.7 M2.94 22.43 C7.62 19.06, 12.16 11.85, 21.31 1.3 M2.94 22.43 C8.84 13.93, 15.09 6.67, 21.31 1.3 M3.34 28.08 C8.45 22.2, 15.86 14.22, 26.3 1.66 M3.34 28.08 C11.3 18.53, 19.99 8.95, 26.3 1.66 M3.08 34.47 C8.81 27.18, 13.97 19.49, 31.94 1.27 M3.08 34.47 C14.43 22.51, 24.33 9.33, 31.94 1.27 M3.47 40.12 C12.35 31.04, 18.27 25.41, 36.93 1.63 M3.47 40.12 C15.88 26.78, 27.79 13.2, 36.93 1.63 M1.24 48.78 C16.46 30.66, 31.21 12.33, 42.57 1.23 M1.24 48.78 C12.15 36.94, 22.16 25.62, 42.57 1.23 M3.6 52.16 C18.01 34.37, 31.11 19.03, 47.56 1.59 M3.6 52.16 C19.53 31.51, 36.91 12.39, 47.56 1.59 M6.62 54.78 C18.88 36.95, 34.58 21.44, 52.55 1.95 M6.62 54.78 C24.82 34.5, 43.82 12.99, 52.55 1.95 M10.95 55.9 C26.99 39.12, 44.05 18.72, 58.19 1.56 M10.95 55.9 C24.87 38.85, 37.65 22.78, 58.19 1.56 M15.94 56.26 C32.41 37.29, 52.27 14.55, 63.18 1.92 M15.94 56.26 C28.71 41.95, 40.17 27.51, 63.18 1.92 M21.58 55.86 C32.31 41.18, 41.8 31.76, 68.82 1.52 M21.58 55.86 C40.54 33.38, 58.37 13.43, 68.82 1.52 M26.57 56.22 C39.64 40.46, 54.96 25.43, 73.81 1.88 M26.57 56.22 C41.55 41, 54.19 24.85, 73.81 1.88 M32.21 55.83 C46.88 39.51, 59.02 24.3, 79.45 1.49 M32.21 55.83 C41.85 43.67, 51.93 33.01, 79.45 1.49 M37.2 56.19 C54.72 33.32, 75.89 14.35, 84.44 1.85 M37.2 56.19 C55.64 34.43, 75.25 11.91, 84.44 1.85 M42.84 55.79 C52.41 45.6, 65.01 33.16, 90.08 1.45 M42.84 55.79 C57.22 40.12, 71.68 23.47, 90.08 1.45 M47.83 56.15 C59.79 39.18, 73.3 26.23, 95.07 1.81 M47.83 56.15 C61.55 41.21, 76.43 23.54, 95.07 1.81 M53.47 55.76 C63.03 40.42, 75.61 31.14, 100.71 1.42 M53.47 55.76 C66.67 41.93, 78.87 26.18, 100.71 1.42 M58.46 56.12 C74.09 41.36, 86.13 25.64, 105.7 1.78 M58.46 56.12 C74.84 36.4, 91.7 16.37, 105.7 1.78 M64.1 55.72 C74.76 44.92, 84.93 33.06, 111.34 1.39 M64.1 55.72 C81.47 37.2, 95.77 19.16, 111.34 1.39 M69.09 56.08 C83.49 38.94, 100.33 22.91, 116.33 1.75 M69.09 56.08 C86.58 36.83, 103.6 15.73, 116.33 1.75 M74.73 55.69 C87.7 40.64, 103.82 23.66, 121.97 1.35 M74.73 55.69 C91.59 37.11, 107.98 17.47, 121.97 1.35 M79.72 56.05 C91.4 45.28, 101.15 33.82, 126.96 1.71 M79.72 56.05 C96.11 37.17, 111.91 20.22, 126.96 1.71 M85.36 55.66 C99.09 42.01, 112.65 26.65, 132.6 1.32 M85.36 55.66 C96.08 43.37, 105.59 33.08, 132.6 1.32 M90.35 56.02 C105.62 41.35, 116.42 24.24, 137.59 1.68 M90.35 56.02 C106.59 38.46, 121.7 19.07, 137.59 1.68 M95.34 56.38 C105.23 42.7, 119.55 30.32, 142.57 2.04 M95.34 56.38 C106.9 43.22, 118.03 31.99, 142.57 2.04 M100.98 55.98 C114.44 42.96, 125.32 27.76, 148.22 1.64 M100.98 55.98 C112.61 43.98, 123.47 30.99, 148.22 1.64 M105.97 56.34 C120.45 36.37, 137.9 19.22, 153.2 2 M105.97 56.34 C122.88 36.74, 140.17 17.12, 153.2 2 M111.61 55.95 C122.18 44.36, 131.77 33.83, 158.85 1.61 M111.61 55.95 C127.42 35.9, 144.79 18.08, 158.85 1.61 M116.6 56.31 C136.81 33.97, 151.2 13.22, 163.83 1.97 M116.6 56.31 C135.42 35.65, 151.45 14.18, 163.83 1.97 M122.24 55.91 C140.49 36.17, 159.74 13.63, 169.48 1.57 M122.24 55.91 C133.39 42.17, 146.02 30.04, 169.48 1.57 M127.23 56.27 C140.59 42.1, 148.37 28.06, 174.46 1.93 M127.23 56.27 C141.61 39.42, 155.96 24.08, 174.46 1.93 M132.87 55.88 C140.41 43.68, 152.55 35.65, 180.11 1.54 M132.87 55.88 C146.28 40.83, 158.15 25.47, 180.11 1.54 M137.86 56.24 C152.98 41.75, 163.42 24.44, 185.09 1.9 M137.86 56.24 C155.06 35.26, 173.21 16.89, 185.09 1.9 M143.5 55.84 C157.35 43.36, 165.88 26.6, 190.74 1.5 M143.5 55.84 C155.64 40.96, 169.13 26.91, 190.74 1.5 M148.49 56.2 C163.29 36.99, 177.38 23, 195.72 1.86 M148.49 56.2 C159.56 41.33, 172.02 28.54, 195.72 1.86 M154.13 55.81 C169.39 41.23, 182.04 25.34, 201.37 1.47 M154.13 55.81 C165.91 43.14, 176.73 29.85, 201.37 1.47 M159.12 56.17 C170.7 41, 180.38 29.72, 206.35 1.83 M159.12 56.17 C171.38 41.65, 183.52 26.51, 206.35 1.83 M164.76 55.77 C176.46 42.7, 185.92 31.51, 212 1.43 M164.76 55.77 C178.78 39.49, 191.39 23.6, 212 1.43 M169.75 56.13 C179.55 42.57, 188.42 31.62, 216.98 1.79 M169.75 56.13 C185.5 37.49, 202.16 19.59, 216.98 1.79 M174.74 56.49 C190.76 34.86, 211.83 15.3, 223.28 0.65 M174.74 56.49 C189.63 38.79, 203.75 22.87, 223.28 0.65 M180.38 56.1 C191.16 40.74, 204.1 29.31, 226.96 2.52 M180.38 56.1 C191.11 42.61, 204.39 28.39, 226.96 2.52 M185.37 56.46 C200.94 36.5, 218.81 18.49, 230.63 4.38 M185.37 56.46 C195.97 45.33, 205.94 32.51, 230.63 4.38 M191.01 56.06 C201.29 41.66, 213.35 30.67, 232.34 8.52 M191.01 56.06 C207.1 36.54, 222.59 18.93, 232.34 8.52 M196 56.43 C204.22 47.38, 214.23 33.68, 232.73 14.16 M196 56.43 C204.26 46.88, 211.94 38.06, 232.73 14.16 M201.64 56.03 C207.28 47.01, 216.75 41.26, 232.47 20.56 M201.64 56.03 C213.81 41.49, 226.04 27.58, 232.47 20.56 M206.63 56.39 C213.66 49.58, 221.2 42.13, 232.87 26.2 M206.63 56.39 C214.21 48.12, 220.1 40.17, 232.87 26.2 M212.27 56 C220.86 48.48, 226.69 41.85, 233.26 31.85 M212.27 56 C219.05 48.16, 226.09 40.94, 233.26 31.85 M217.26 56.36 C223.53 51.38, 227.99 45.76, 233 38.24 M217.26 56.36 C220.64 51.91, 224.34 47.76, 233 38.24 M220.93 58.23 C226.34 55.05, 227.82 49.49, 233.4 43.89 M220.93 58.23 C224.92 53.87, 228.57 50.55, 233.4 43.89" stroke="#ffec99" stroke-width="0.5" fill="none"></path><path d="M14 0 M14 0 C83.66 -2.61, 152 -2.72, 219 0 M14 0 C76.33 0.66, 140.86 0.71, 219 0 M219 0 C228.72 0.94, 231.81 4.87, 233 14 M219 0 C228.94 -1.23, 234.96 6.02, 233 14 M233 14 C233.15 21.73, 233.48 30.91, 233 42 M233 14 C233.17 23.41, 232.23 33.77, 233 42 M233 42 C233.46 53.1, 228.55 56.93, 219 56 M233 42 C233.49 53.21, 226.3 54.98, 219 56 M219 56 C174.71 55.88, 131.18 53.94, 14 56 M219 56 C167.47 56.59, 117.97 55.89, 14 56 M14 56 C5.86 54.66, -0.06 49.99, 0 42 M14 56 C3.47 57.14, -0.48 52.29, 0 42 M0 42 C-0.41 32.73, -0.89 25.35, 0 14 M0 42 C0.24 34.56, -0.54 28.37, 0 14 M0 14 C-1.3 4.23, 6.62 0.57, 14 0 M0 14 C-0.32 4.3, 5.52 0.87, 14 0" stroke="#1e1e1e" stroke-width="1" fill="none"></path></g><g transform="translate(469.03125 565.5) rotate(0 105.46875 12)"><text x="105.46875" y="0" font-family="Cascadia, Segoe UI Emoji" font-size="20px" fill="#1e1e1e" text-anchor="middle" style="white-space: pre;" direction="ltr" dominant-baseline="text-before-edge">release/my-feature</text></g><g stroke-linecap="round"><g transform="translate(191.5 87) rotate(0 501.9086820373172 -4.915608753361738)"><path d="M0.31 -0.21 C167.93 -1.48, 837.17 -6.46, 1004.81 -7.67 M-0.99 -1.37 C166.54 -3, 835.94 -8.26, 1003.76 -9.62" stroke="#1e1e1e" stroke-width="1" fill="none"></path></g></g><mask></mask><g stroke-linecap="round"><g transform="translate(195.59131796268275 310.91560875336177) rotate(0 284.3514477792615 -2.929970612325718)"><path d="M-0.19 0.45 C94.83 -0.27, 475.33 -3.59, 570.45 -4.47 M-1.75 -0.36 C93.12 -1.42, 474.44 -5.81, 569.74 -6.31" stroke="#1e1e1e" stroke-width="1" fill="none"></path></g></g><mask></mask><g stroke-linecap="round"><g transform="translate(187.5913179626828 215.91560875336177) rotate(0 119.82083795447832 -0.7510993761289626)"><path d="M-0.2 -0.58 C39.54 -0.96, 199.02 -1.09, 239.14 -1.41 M-1.76 1.73 C38.29 0.92, 201.1 -2.69, 241.4 -3.23" stroke="#1e1e1e" stroke-width="1" fill="none"></path></g></g><mask></mask><g stroke-linecap="round"><g transform="translate(298.59131796268275 438.91560875336177) rotate(0 102.2621893330151 -0.8799000009894371)"><path d="M-1.03 0.73 C32.9 0.27, 168.89 -1.83, 203.24 -2.49 M0.64 0.06 C34.98 -0.26, 171.52 -0.78, 205.55 -1.2" stroke="#1e1e1e" stroke-width="1" fill="none"></path></g></g><mask></mask><g stroke-linecap="round"><g transform="translate(690.5913179626828 580.9156087533618) rotate(0 151.00419566767755 -0.21281444136985783)"><path d="M-0.93 -0.26 C49.35 -0.07, 250.5 -0.39, 300.84 0.01 M0.78 -1.45 C51.48 -1.04, 252.48 0.72, 302.94 1.02" stroke="#1e1e1e" stroke-width="1" fill="none"></path></g></g><mask></mask><g stroke-linecap="round" transform="translate(279.5 73) rotate(0 11.5 13)"><path d="M7.4 1.42 C9.68 0.17, 13.17 -0.1, 15.33 0.56 C17.48 1.21, 19.14 3.06, 20.33 5.35 C21.52 7.65, 22.53 11.46, 22.48 14.34 C22.43 17.23, 21.71 20.83, 20.03 22.67 C18.34 24.5, 15.05 25.4, 12.37 25.37 C9.68 25.34, 5.79 24.19, 3.91 22.49 C2.02 20.79, 1.5 17.84, 1.06 15.17 C0.62 12.5, -0.03 8.95, 1.26 6.47 C2.55 4, 7.09 1.36, 8.78 0.34 C10.47 -0.67, 11.29 0.14, 11.41 0.39 M8.2 0.19 C10.46 -0.71, 15.57 -0.87, 17.94 0.66 C20.3 2.2, 21.63 6.52, 22.37 9.4 C23.12 12.28, 23.09 15.5, 22.42 17.93 C21.75 20.36, 20.61 22.74, 18.38 23.97 C16.14 25.21, 11.82 25.62, 9 25.36 C6.19 25.09, 3.02 24.42, 1.49 22.41 C-0.04 20.39, -0.32 16.03, -0.18 13.27 C-0.04 10.52, 0.77 8.25, 2.33 5.88 C3.9 3.5, 8.2 -0.21, 9.2 -0.96 C10.2 -1.72, 8.05 1.13, 8.34 1.33" stroke="none" stroke-width="0" fill="#b2f2bb"></path><path d="M7.82 -0.06 C10.02 -1.17, 13.44 0.21, 15.56 1.34 C17.67 2.47, 19.2 4.48, 20.49 6.71 C21.78 8.94, 23.49 12.14, 23.28 14.73 C23.08 17.32, 21.24 20.44, 19.27 22.24 C17.3 24.04, 13.96 25.33, 11.46 25.52 C8.97 25.7, 6.1 25.08, 4.32 23.35 C2.55 21.63, 1.3 17.77, 0.8 15.16 C0.3 12.56, -0.17 10.23, 1.32 7.74 C2.82 5.26, 8.01 1.4, 9.76 0.25 C11.5 -0.9, 11.71 0.73, 11.79 0.83 M15.97 -0.04 C17.94 0.57, 18.89 2.65, 20.01 5.26 C21.14 7.87, 22.68 12.5, 22.73 15.61 C22.78 18.72, 22.31 22.27, 20.32 23.93 C18.32 25.59, 13.48 25.57, 10.75 25.58 C8.03 25.59, 5.54 25.88, 3.96 23.98 C2.38 22.09, 1.63 17, 1.28 14.21 C0.93 11.43, 0.92 9.75, 1.87 7.28 C2.82 4.81, 4.58 0.44, 6.98 -0.62 C9.37 -1.69, 14.73 0.68, 16.22 0.89 C17.72 1.1, 16.21 0.47, 15.95 0.63" stroke="#1e1e1e" stroke-width="1" fill="none"></path></g><g stroke-linecap="round" transform="translate(1059 66) rotate(0 11.5 13)"><path d="M14.56 0.61 C17.1 1.08, 20.23 2.79, 21.71 5.17 C23.19 7.56, 23.87 11.91, 23.43 14.93 C22.99 17.94, 20.9 21.39, 19.06 23.26 C17.22 25.14, 14.66 26.16, 12.39 26.18 C10.11 26.2, 7.57 25, 5.42 23.38 C3.27 21.76, 0.03 19.08, -0.5 16.46 C-1.03 13.85, 0.96 10.14, 2.24 7.67 C3.53 5.21, 4.76 2.61, 7.22 1.67 C9.69 0.73, 14.92 1.73, 17.02 2.03 C19.12 2.34, 19.87 3.39, 19.82 3.48 M8.76 -0.82 C10.63 -1.71, 14.04 -0.21, 16.31 1.28 C18.58 2.77, 21.43 5.6, 22.36 8.11 C23.28 10.62, 22.53 13.4, 21.86 16.32 C21.19 19.24, 20.66 23.89, 18.36 25.61 C16.05 27.33, 10.82 27.34, 8.03 26.64 C5.24 25.94, 2.83 23.75, 1.63 21.4 C0.43 19.04, 0.81 15.55, 0.86 12.5 C0.9 9.46, 0.56 5.37, 1.92 3.13 C3.29 0.9, 7.97 -0.47, 9.06 -0.88 C10.15 -1.29, 8.34 0.18, 8.48 0.68" stroke="none" stroke-width="0" fill="#b2f2bb"></path><path d="M9.25 0.51 C11.46 -0.38, 14.21 0.56, 16.39 1.59 C18.58 2.63, 21.3 4.14, 22.37 6.72 C23.45 9.3, 23.54 14.12, 22.84 17.05 C22.14 19.99, 20.28 22.81, 18.18 24.35 C16.08 25.89, 12.61 26.77, 10.23 26.29 C7.85 25.8, 5.59 23.63, 3.92 21.42 C2.25 19.21, 0.67 15.66, 0.22 13.04 C-0.23 10.41, -0.39 7.78, 1.2 5.66 C2.79 3.54, 8.04 1.14, 9.76 0.34 C11.48 -0.47, 11.39 0.69, 11.52 0.83 M11.51 1.01 C13.84 0.67, 16.83 0.19, 18.49 1.64 C20.15 3.1, 20.84 6.67, 21.46 9.76 C22.08 12.85, 23.21 17.47, 22.21 20.17 C21.21 22.88, 17.73 25.27, 15.47 25.97 C13.22 26.68, 10.98 25.56, 8.69 24.4 C6.39 23.24, 3.3 21.14, 1.71 19 C0.12 16.86, -1.42 14.43, -0.83 11.55 C-0.25 8.68, 3.35 3.47, 5.21 1.73 C7.06 -0.01, 9.36 1.47, 10.29 1.11 C11.21 0.76, 10.61 -0.29, 10.73 -0.4" stroke="#1e1e1e" stroke-width="1" fill="none"></path></g><g stroke-linecap="round" transform="translate(596 69) rotate(0 11.5 13)"><path d="M16.31 0.23 C18.24 1.41, 19.87 5.48, 20.87 7.95 C21.87 10.42, 22.82 12.48, 22.31 15.04 C21.81 17.6, 19.72 21.58, 17.84 23.31 C15.96 25.05, 13.41 25.66, 11.02 25.45 C8.63 25.24, 5.34 23.7, 3.51 22.06 C1.68 20.41, 0.38 18.09, 0.02 15.58 C-0.34 13.06, -0.02 9.35, 1.36 6.97 C2.73 4.6, 5.69 2.23, 8.26 1.33 C10.83 0.43, 15.29 1.41, 16.76 1.57 C18.24 1.72, 17.11 2.12, 17.11 2.27 M8.01 -0.34 C10.15 -1.59, 13.64 -0.63, 16.05 0.4 C18.47 1.42, 21.44 3.29, 22.51 5.81 C23.58 8.33, 23 12.72, 22.49 15.5 C21.97 18.29, 21.08 20.91, 19.41 22.54 C17.75 24.17, 15.07 25.02, 12.5 25.27 C9.93 25.51, 6.13 25.43, 4 24 C1.88 22.57, 0.33 19.31, -0.27 16.71 C-0.87 14.1, -0.61 10.94, 0.42 8.38 C1.45 5.82, 4.87 2.58, 5.9 1.33 C6.92 0.09, 6.06 0.81, 6.55 0.9" stroke="none" stroke-width="0" fill="#b2f2bb"></path><path d="M9.56 -0.14 C11.59 -0.42, 14.87 1.24, 17.2 2.99 C19.52 4.75, 22.7 7.67, 23.52 10.37 C24.34 13.08, 23.46 16.99, 22.12 19.24 C20.78 21.49, 17.6 22.93, 15.46 23.86 C13.33 24.79, 11.53 25.5, 9.32 24.83 C7.12 24.15, 3.72 22.1, 2.22 19.83 C0.72 17.56, 0.25 13.81, 0.34 11.21 C0.42 8.6, 0.65 6, 2.71 4.21 C4.76 2.41, 10.82 1.18, 12.66 0.44 C14.5 -0.29, 13.99 -0.45, 13.76 -0.2 M6.89 0.64 C9 -0.68, 12.83 -1.53, 15 -0.59 C17.17 0.34, 18.58 3.92, 19.91 6.26 C21.24 8.61, 23.28 10.78, 22.98 13.48 C22.67 16.17, 19.89 20.43, 18.09 22.45 C16.29 24.46, 14.28 25.32, 12.18 25.55 C10.09 25.78, 7.36 25.3, 5.54 23.82 C3.72 22.35, 2.24 19.27, 1.28 16.7 C0.32 14.14, -0.96 10.99, -0.21 8.44 C0.54 5.9, 4.45 2.49, 5.78 1.44 C7.11 0.39, 7.68 1.76, 7.8 2.15" stroke="#1e1e1e" stroke-width="1" fill="none"></path></g><g transform="translate(256.5 14) rotate(0 35.15625 12)"><text x="0" y="0" font-family="Cascadia, Segoe UI Emoji" font-size="20px" fill="#1e1e1e" text-anchor="start" style="white-space: pre;" direction="ltr" dominant-baseline="text-before-edge">v0.1.0</text></g><g transform="translate(574.34375 23) rotate(0 35.15625 12)"><text x="0" y="0" font-family="Cascadia, Segoe UI Emoji" font-size="20px" fill="#1e1e1e" text-anchor="start" style="white-space: pre;" direction="ltr" dominant-baseline="text-before-edge">v0.1.1</text></g><g transform="translate(1045.34375 10) rotate(0 35.15625 12)"><text x="0" y="0" font-family="Cascadia, Segoe UI Emoji" font-size="20px" fill="#1e1e1e" text-anchor="start" style="white-space: pre;" direction="ltr" dominant-baseline="text-before-edge">v0.2.0</text></g><g stroke-linecap="round" transform="translate(286 201) rotate(0 11.5 13)"><path d="M7.88 0.9 C10.2 -0.37, 13.03 -0.53, 15.25 0.39 C17.47 1.3, 19.78 4.06, 21.2 6.41 C22.63 8.75, 24.26 11.6, 23.78 14.45 C23.31 17.31, 20.22 21.7, 18.34 23.52 C16.46 25.34, 14.89 25.35, 12.5 25.37 C10.11 25.4, 6.13 25.22, 4.01 23.67 C1.89 22.11, 0.3 18.83, -0.25 16.04 C-0.79 13.24, -1.15 9.53, 0.74 6.89 C2.62 4.26, 8.99 1.13, 11.07 0.23 C13.14 -0.67, 13.34 1.47, 13.19 1.5 M6.03 2.17 C8.48 0.52, 13.25 -1.66, 15.74 -0.83 C18.24 -0.01, 19.85 4.49, 20.99 7.1 C22.14 9.7, 22.98 12.41, 22.63 14.79 C22.28 17.16, 20.84 19.31, 18.91 21.35 C16.97 23.39, 13.44 26.6, 11.01 27.01 C8.58 27.42, 6.17 25.75, 4.33 23.79 C2.48 21.83, 0.49 17.91, -0.06 15.25 C-0.6 12.6, -0.29 10.19, 1.07 7.88 C2.44 5.57, 7.1 2.6, 8.13 1.4 C9.15 0.19, 7.33 0.64, 7.22 0.66" stroke="none" stroke-width="0" fill="#b2f2bb"></path><path d="M16.81 0.69 C18.74 1.46, 20.19 4.04, 21.19 6.63 C22.19 9.22, 23.46 13.47, 22.83 16.2 C22.21 18.93, 19.45 21.38, 17.46 23 C15.46 24.61, 13.34 26.06, 10.86 25.89 C8.38 25.72, 4.25 23.88, 2.57 21.98 C0.9 20.08, 0.98 17.27, 0.8 14.48 C0.62 11.69, 0.25 7.6, 1.5 5.26 C2.74 2.91, 5.71 0.83, 8.27 0.4 C10.84 -0.04, 15.04 2.2, 16.87 2.64 C18.7 3.07, 19.14 2.97, 19.25 3.01 M13.62 1.92 C15.94 2.29, 20.68 2.1, 22.17 4.34 C23.65 6.59, 22.98 12.39, 22.52 15.39 C22.06 18.39, 21.21 20.68, 19.41 22.36 C17.6 24.04, 13.98 25.44, 11.66 25.49 C9.34 25.53, 7.44 24.05, 5.51 22.62 C3.58 21.2, 1.03 19.32, 0.07 16.95 C-0.89 14.59, -1.3 10.9, -0.24 8.41 C0.81 5.91, 3.77 3.26, 6.38 1.98 C8.99 0.69, 13.84 0.99, 15.41 0.71 C16.98 0.44, 15.97 0.07, 15.8 0.34" stroke="#1e1e1e" stroke-width="1" fill="none"></path></g><g stroke-linecap="round" transform="translate(415 198) rotate(0 11.5 13)"><path d="M13.59 -0.44 C16.01 -0.22, 19.42 1.59, 20.82 3.65 C22.23 5.72, 22.1 9.14, 22.02 11.95 C21.93 14.75, 21.54 18.13, 20.3 20.47 C19.07 22.82, 17.03 25.2, 14.62 26 C12.2 26.8, 7.94 26.7, 5.82 25.28 C3.7 23.85, 2.73 20.12, 1.9 17.45 C1.08 14.77, 0.49 11.66, 0.88 9.24 C1.28 6.81, 1.89 4.43, 4.26 2.87 C6.63 1.31, 13.18 0.3, 15.11 -0.13 C17.05 -0.55, 16.12 0.17, 15.86 0.32 M8.88 1.4 C11.34 0.77, 14.95 0.77, 16.98 2.18 C19.02 3.59, 20.08 7.3, 21.07 9.86 C22.06 12.41, 23.79 15.25, 22.93 17.51 C22.07 19.76, 18.4 22.17, 15.89 23.37 C13.38 24.57, 10.3 25.23, 7.86 24.7 C5.41 24.17, 2.65 22.45, 1.21 20.21 C-0.24 17.96, -1.19 13.82, -0.81 11.25 C-0.43 8.68, 1.73 6.59, 3.49 4.8 C5.25 3.01, 8.9 1.24, 9.74 0.51 C10.57 -0.23, 8.66 0.01, 8.52 0.39" stroke="none" stroke-width="0" fill="#b2f2bb"></path><path d="M14.41 0.12 C16.59 0.64, 19.13 3.36, 20.71 5.59 C22.28 7.81, 24.16 10.59, 23.87 13.46 C23.58 16.34, 20.72 20.85, 18.97 22.82 C17.22 24.79, 15.75 25.06, 13.38 25.3 C11 25.53, 6.96 25.63, 4.73 24.25 C2.49 22.86, 0.7 19.74, -0.03 17 C-0.75 14.26, -0.81 10.37, 0.36 7.79 C1.53 5.21, 4.72 2.6, 7 1.55 C9.28 0.49, 12.77 1.73, 14.03 1.47 C15.29 1.2, 14.66 0.05, 14.56 -0.03 M16.99 -0.34 C19.34 0.58, 20.77 5.62, 21.67 8.39 C22.57 11.15, 23.04 13.94, 22.41 16.27 C21.78 18.59, 20.02 20.53, 17.9 22.33 C15.78 24.12, 12.12 26.94, 9.68 27.03 C7.25 27.11, 4.96 25.05, 3.3 22.84 C1.63 20.63, -0.04 16.49, -0.3 13.78 C-0.56 11.07, 0.11 8.72, 1.72 6.57 C3.34 4.42, 6.95 1.91, 9.37 0.87 C11.79 -0.18, 15.12 0.37, 16.23 0.3 C17.34 0.23, 15.98 0.14, 16.05 0.43" stroke="#1e1e1e" stroke-width="1" fill="none"></path></g><g stroke-linecap="round" transform="translate(491 425) rotate(0 11.5 13)"><path d="M9.25 0.82 C11.5 -0.01, 14.12 0.29, 16.29 1.48 C18.47 2.66, 21.04 5.54, 22.27 7.95 C23.5 10.35, 24.38 13.36, 23.67 15.89 C22.97 18.41, 20.19 21.27, 18.04 23.08 C15.88 24.89, 13.3 26.84, 10.76 26.76 C8.22 26.67, 4.66 24.61, 2.79 22.58 C0.93 20.54, -0.31 17.37, -0.43 14.56 C-0.54 11.74, 0.41 7.9, 2.11 5.68 C3.82 3.46, 8.37 2.03, 9.81 1.24 C11.25 0.44, 10.65 0.73, 10.74 0.92 M14.85 0.93 C16.94 1.91, 20.1 3.82, 21.22 6.35 C22.35 8.89, 22.1 13.56, 21.59 16.16 C21.09 18.76, 19.85 20.13, 18.19 21.96 C16.53 23.79, 13.81 27.04, 11.64 27.15 C9.46 27.26, 7.25 24.6, 5.13 22.61 C3 20.62, -0.69 17.8, -1.12 15.23 C-1.55 12.66, 1.28 9.53, 2.56 7.2 C3.83 4.88, 4.58 2.52, 6.51 1.27 C8.44 0.03, 12.69 -0.32, 14.13 -0.26 C15.57 -0.2, 14.99 1.11, 15.16 1.66" stroke="none" stroke-width="0" fill="#b2f2bb"></path><path d="M13.35 -0.89 C15.77 -0.67, 18.73 2.67, 20.26 4.8 C21.79 6.93, 22.34 9.31, 22.52 11.9 C22.69 14.5, 22.79 18.22, 21.3 20.37 C19.82 22.52, 16.1 24.24, 13.61 24.81 C11.13 25.38, 8.37 24.88, 6.39 23.78 C4.42 22.68, 2.84 20.74, 1.76 18.22 C0.68 15.71, -0.55 11.17, -0.08 8.67 C0.38 6.18, 1.97 4.44, 4.56 3.24 C7.14 2.03, 13.45 1.73, 15.44 1.46 C17.43 1.19, 16.73 1.64, 16.5 1.6 M16.36 0.99 C18.16 2.27, 19.2 5.8, 20.42 8.19 C21.64 10.58, 24.13 12.73, 23.66 15.32 C23.2 17.92, 19.99 21.88, 17.62 23.77 C15.25 25.66, 11.55 26.71, 9.42 26.66 C7.3 26.6, 6.47 25.32, 4.9 23.43 C3.32 21.54, 0.42 18.31, -0.04 15.31 C-0.5 12.31, 0.82 7.82, 2.13 5.44 C3.45 3.07, 5.38 1.87, 7.83 1.07 C10.28 0.26, 15.64 0.37, 16.85 0.6 C18.06 0.83, 15.37 2.39, 15.08 2.46" stroke="#1e1e1e" stroke-width="1" fill="none"></path></g><g stroke-linecap="round" transform="translate(869 566) rotate(0 11.5 13)"><path d="M7.52 1.48 C9.78 0.27, 13.6 -0.45, 15.88 0.35 C18.17 1.15, 20.17 3.83, 21.21 6.29 C22.26 8.76, 22.71 12.24, 22.17 15.15 C21.63 18.05, 19.65 21.85, 17.98 23.71 C16.3 25.58, 14.3 26.42, 12.11 26.32 C9.92 26.21, 6.69 24.93, 4.83 23.11 C2.96 21.29, 1.48 17.98, 0.92 15.39 C0.36 12.8, 0.15 10.15, 1.47 7.57 C2.79 4.99, 7.57 1.14, 8.84 -0.09 C10.11 -1.32, 9.14 -0.29, 9.08 0.18 M13.12 -1.12 C15.56 -0.89, 19.03 2.59, 20.61 4.8 C22.2 7.01, 22.47 9.55, 22.65 12.13 C22.83 14.71, 23.04 18.15, 21.7 20.29 C20.36 22.43, 16.89 24.17, 14.59 24.96 C12.29 25.74, 10.41 25.89, 7.91 25.01 C5.41 24.13, 1.06 22.1, -0.42 19.66 C-1.9 17.22, -2.03 13.4, -0.96 10.35 C0.11 7.31, 3.97 3.11, 6.01 1.41 C8.05 -0.29, 10.18 0.09, 11.27 0.16 C12.36 0.23, 12.4 1.61, 12.55 1.82" stroke="none" stroke-width="0" fill="#b2f2bb"></path><path d="M9.06 -0.66 C11.49 -1.5, 15.34 -0.33, 17.45 1.19 C19.56 2.7, 20.93 5.56, 21.73 8.44 C22.53 11.31, 22.93 15.76, 22.23 18.43 C21.54 21.09, 19.6 23.13, 17.55 24.44 C15.49 25.75, 12.25 26.62, 9.9 26.28 C7.54 25.93, 5.1 24.62, 3.42 22.36 C1.74 20.1, 0.01 15.68, -0.17 12.73 C-0.36 9.77, 0.15 6.89, 2.3 4.64 C4.45 2.39, 10.7 -0.02, 12.73 -0.77 C14.76 -1.51, 14.61 -0.21, 14.49 0.17 M11.55 0.9 C13.97 0.55, 17.73 2.24, 19.76 3.86 C21.79 5.47, 23.66 8.21, 23.75 10.6 C23.84 12.98, 21.55 15.82, 20.3 18.16 C19.04 20.5, 18.25 23.64, 16.2 24.66 C14.16 25.67, 10.26 25.1, 8.02 24.24 C5.78 23.38, 4.24 21.6, 2.74 19.51 C1.25 17.43, -1.31 14.2, -0.97 11.72 C-0.64 9.24, 2.83 6.8, 4.74 4.63 C6.65 2.47, 9.48 -0.7, 10.5 -1.26 C11.52 -1.82, 10.67 1.02, 10.86 1.27" stroke="#1e1e1e" stroke-width="1" fill="none"></path></g><g stroke-linecap="round" transform="translate(983 568) rotate(0 11.5 13)"><path d="M11.55 0.84 C13.78 0.71, 15.92 1.12, 17.91 2.89 C19.9 4.65, 22.9 8.55, 23.5 11.44 C24.09 14.32, 22.89 17.94, 21.47 20.2 C20.06 22.46, 17.31 24.19, 15 25.02 C12.68 25.85, 9.69 26, 7.6 25.16 C5.51 24.32, 3.84 22.46, 2.47 19.98 C1.09 17.49, -0.88 13.18, -0.64 10.24 C-0.4 7.3, 1.47 4.06, 3.91 2.32 C6.36 0.59, 12.09 0.16, 14.03 -0.17 C15.96 -0.5, 15.75 0.22, 15.54 0.36 M9.79 0.78 C12.33 0.42, 17.4 0.87, 19.72 2.36 C22.03 3.85, 23.44 7.02, 23.68 9.72 C23.92 12.41, 22.62 16.09, 21.14 18.53 C19.66 20.97, 17.26 23.2, 14.81 24.35 C12.36 25.5, 8.8 26.33, 6.44 25.45 C4.08 24.57, 1.86 21.41, 0.65 19.07 C-0.56 16.73, -1.49 14.19, -0.8 11.39 C-0.12 8.6, 2.85 4.3, 4.75 2.3 C6.64 0.29, 9.53 -0.18, 10.55 -0.63 C11.58 -1.09, 10.58 -0.89, 10.9 -0.42" stroke="none" stroke-width="0" fill="#b2f2bb"></path><path d="M7.16 0.98 C9.31 -0.5, 12.68 -1.12, 14.98 -0.54 C17.27 0.03, 19.5 2.16, 20.93 4.44 C22.35 6.71, 23.78 10.32, 23.51 13.1 C23.24 15.88, 21.22 18.98, 19.32 21.09 C17.41 23.21, 14.53 25.4, 12.09 25.78 C9.66 26.17, 6.69 24.82, 4.71 23.4 C2.73 21.98, 0.87 20.05, 0.21 17.28 C-0.44 14.51, -0.5 9.53, 0.78 6.77 C2.07 4.01, 6.76 1.68, 7.92 0.73 C9.08 -0.23, 7.71 0.92, 7.75 1.03 M6.9 2.03 C9.32 0.84, 13.69 -1, 16.15 -0.1 C18.61 0.8, 20.76 4.98, 21.65 7.41 C22.54 9.84, 21.94 11.92, 21.49 14.49 C21.03 17.05, 20.37 21.11, 18.93 22.79 C17.49 24.46, 15.18 24.47, 12.84 24.53 C10.49 24.59, 7.01 24.41, 4.86 23.14 C2.71 21.87, 0.63 19.88, -0.08 16.9 C-0.78 13.92, -0.79 8.05, 0.64 5.24 C2.08 2.43, 7.55 0.74, 8.51 0.02 C9.48 -0.7, 6.45 0.78, 6.44 0.93" stroke="#1e1e1e" stroke-width="1" fill="none"></path></g><g stroke-linecap="round"><g transform="translate(996.8620603643956 557.9159854855777) rotate(0 36.62911411582763 -229.90977474249013)"><path d="M-1.14 -0.49 C11.31 -77.18, 61.93 -382.76, 74.4 -459.33 M0.46 -1.8 C12.8 -78.38, 61.54 -381.78, 73.56 -458" stroke="#1e1e1e" stroke-width="1" fill="none"></path></g><g transform="translate(996.8620603643956 557.9159854855777) rotate(0 36.62911411582763 -229.90977474249013)"><path d="M78.43 -428.2 C76.82 -437.65, 74.29 -443.92, 74.32 -456.85 M79.37 -428.42 C78.27 -436.93, 76.56 -446, 73.24 -457.63" stroke="#1e1e1e" stroke-width="1" fill="none"></path></g><g transform="translate(996.8620603643956 557.9159854855777) rotate(0 36.62911411582763 -229.90977474249013)"><path d="M58.16 -431.43 C62.18 -439.8, 65.26 -445.17, 74.32 -456.85 M59.1 -431.65 C64.08 -439.19, 68.47 -447.29, 73.24 -457.63" stroke="#1e1e1e" stroke-width="1" fill="none"></path></g></g><mask></mask><g stroke-linecap="round" transform="translate(673 292) rotate(0 11.5 13)"><path d="M9.1 0.11 C11.5 -0.61, 14.87 0.46, 17.06 1.51 C19.25 2.55, 21.41 4.01, 22.24 6.38 C23.07 8.75, 22.68 12.93, 22.04 15.73 C21.4 18.54, 20.3 21.43, 18.4 23.2 C16.5 24.98, 13.19 26.62, 10.63 26.39 C8.08 26.16, 4.84 23.74, 3.08 21.84 C1.32 19.93, 0.42 17.49, 0.07 14.94 C-0.28 12.39, -0.6 9.01, 0.98 6.55 C2.56 4.1, 7.93 1.21, 9.56 0.22 C11.2 -0.76, 10.71 0.57, 10.8 0.66 M17.22 -0.37 C19.81 0.15, 21.81 3.23, 22.72 5.83 C23.62 8.42, 23.25 12.47, 22.65 15.18 C22.06 17.89, 21.19 20.27, 19.16 22.1 C17.13 23.93, 12.99 26.07, 10.49 26.16 C7.99 26.26, 6.02 24.33, 4.17 22.67 C2.32 21.02, -0.33 19.03, -0.6 16.24 C-0.87 13.45, 1.22 8.72, 2.55 5.94 C3.89 3.17, 5.24 0.46, 7.41 -0.41 C9.58 -1.28, 14.14 0.21, 15.57 0.72 C17 1.23, 16.24 2.52, 15.97 2.65" stroke="none" stroke-width="0" fill="#b2f2bb"></path><path d="M10.1 1.13 C12.51 0.53, 15.44 0.92, 17.35 2.08 C19.25 3.25, 20.77 5.61, 21.52 8.12 C22.27 10.64, 22.64 14.6, 21.82 17.17 C21 19.74, 18.57 22.19, 16.6 23.55 C14.63 24.91, 12.18 25.72, 9.99 25.31 C7.81 24.89, 5.01 22.99, 3.47 21.07 C1.93 19.15, 0.84 16.44, 0.75 13.8 C0.66 11.16, 1.27 7.66, 2.93 5.21 C4.59 2.75, 9 -0.18, 10.71 -0.92 C12.41 -1.67, 12.91 0.26, 13.18 0.74 M12.36 -0.97 C14.66 -0.73, 16.84 1.73, 18.85 3.96 C20.87 6.18, 23.86 9.74, 24.43 12.4 C25 15.06, 24.19 17.95, 22.29 19.91 C20.4 21.88, 15.72 23.36, 13.06 24.17 C10.4 24.98, 8.46 25.58, 6.35 24.76 C4.25 23.93, 1.4 21.72, 0.43 19.22 C-0.53 16.72, -0.17 12.5, 0.56 9.78 C1.3 7.06, 2.91 4.65, 4.84 2.89 C6.78 1.13, 10.94 -0.53, 12.18 -0.78 C13.41 -1.03, 12.39 1.12, 12.25 1.39" stroke="#1e1e1e" stroke-width="1" fill="none"></path></g><g stroke-linecap="round" transform="translate(753 292) rotate(0 11.5 13)"><path d="M16.84 1.83 C19.19 2.9, 21.28 5.15, 22.22 7.61 C23.15 10.08, 23.03 14.09, 22.45 16.62 C21.86 19.16, 20.84 21.25, 18.7 22.82 C16.56 24.39, 12.25 26.02, 9.61 26.06 C6.98 26.09, 4.45 25.18, 2.92 23.04 C1.38 20.9, 0.39 16.17, 0.4 13.22 C0.41 10.26, 1.61 7.35, 2.97 5.29 C4.33 3.23, 6.04 1.34, 8.58 0.85 C11.12 0.37, 16.72 2.21, 18.19 2.38 C19.66 2.56, 17.52 1.78, 17.41 1.9 M14.56 0.62 C17.21 1.14, 20.63 4.19, 22.01 6.33 C23.38 8.46, 23.25 10.77, 22.8 13.45 C22.35 16.12, 21.12 20.05, 19.31 22.37 C17.5 24.7, 14.07 27.39, 11.93 27.42 C9.78 27.44, 8.51 24.58, 6.45 22.51 C4.38 20.44, 0.59 17.41, -0.46 15 C-1.51 12.59, -1.02 10.54, 0.17 8.05 C1.35 5.56, 4.2 1.13, 6.65 0.05 C9.1 -1.04, 13.47 1.55, 14.85 1.55 C16.23 1.55, 15.25 -0.08, 14.93 0.07" stroke="none" stroke-width="0" fill="#b2f2bb"></path><path d="M13.02 -0.52 C15.28 -0.27, 18.92 2.03, 20.58 4.36 C22.23 6.69, 22.91 10.65, 22.94 13.45 C22.97 16.26, 22.13 19.01, 20.76 21.19 C19.4 23.38, 17.25 26.04, 14.74 26.57 C12.24 27.1, 8.21 25.88, 5.74 24.38 C3.26 22.87, 0.58 20.23, -0.11 17.56 C-0.8 14.89, 0.75 10.92, 1.58 8.36 C2.42 5.8, 3.06 3.73, 4.89 2.21 C6.73 0.69, 11.13 -0.38, 12.58 -0.76 C14.03 -1.14, 13.58 -0.31, 13.59 -0.04 M11.65 0.11 C13.65 0.22, 16.35 1.79, 18.34 4.01 C20.33 6.23, 23.35 10.88, 23.59 13.42 C23.82 15.97, 21.27 17.39, 19.76 19.28 C18.24 21.17, 16.9 23.96, 14.5 24.75 C12.1 25.54, 7.53 24.91, 5.35 24 C3.17 23.09, 2.36 21.67, 1.41 19.28 C0.45 16.89, -0.76 12.45, -0.37 9.66 C0.02 6.88, 1.83 4.06, 3.74 2.59 C5.65 1.13, 9.77 1.06, 11.09 0.88 C12.42 0.7, 11.2 1.61, 11.68 1.51" stroke="#1e1e1e" stroke-width="1" fill="none"></path></g><g stroke-linecap="round" transform="translate(348 295) rotate(0 11.5 13)"><path d="M14.41 1.06 C16.82 1.27, 19.12 1.89, 20.67 4.09 C22.23 6.29, 23.69 11.37, 23.71 14.26 C23.73 17.15, 22.69 19.62, 20.81 21.43 C18.92 23.24, 14.86 24.75, 12.42 25.12 C9.99 25.49, 8.26 25.09, 6.19 23.63 C4.12 22.17, 0.87 18.84, -0.01 16.36 C-0.89 13.88, -0.22 11.13, 0.92 8.76 C2.05 6.4, 4.5 3.33, 6.82 2.18 C9.14 1.04, 13.17 1.76, 14.83 1.89 C16.5 2.03, 16.88 2.8, 16.82 3 M16.06 2.92 C18.38 4.18, 22.61 7.11, 23.53 9.41 C24.45 11.72, 22.6 14.19, 21.56 16.73 C20.53 19.27, 19.17 22.95, 17.31 24.66 C15.44 26.37, 12.78 27.28, 10.38 27.01 C7.98 26.74, 4.65 25.41, 2.89 23.06 C1.12 20.72, -0.3 16.18, -0.2 12.93 C-0.1 9.68, 1.93 5.9, 3.48 3.55 C5.04 1.2, 6.99 -0.86, 9.15 -1.15 C11.31 -1.44, 15.36 1.28, 16.42 1.8 C17.47 2.32, 15.28 1.71, 15.49 1.95" stroke="none" stroke-width="0" fill="#b2f2bb"></path><path d="M7.32 0.05 C9.63 -0.98, 13.4 0.33, 15.75 1.48 C18.09 2.64, 20.19 4.68, 21.4 6.98 C22.61 9.28, 23.45 12.64, 23.01 15.28 C22.56 17.93, 20.73 21.2, 18.71 22.83 C16.7 24.46, 13.37 24.95, 10.91 25.05 C8.45 25.15, 5.57 25.03, 3.93 23.41 C2.29 21.8, 1.46 18.11, 1.07 15.38 C0.67 12.64, 0.02 9.54, 1.56 7.01 C3.11 4.47, 8.67 1.39, 10.33 0.17 C11.99 -1.05, 11.57 -0.41, 11.52 -0.32 M10.12 -0.6 C12.5 -1.55, 15.54 -1.5, 17.34 -0.06 C19.14 1.38, 20.25 5.43, 20.94 8.05 C21.63 10.68, 22.1 13.28, 21.48 15.71 C20.85 18.15, 19.25 20.73, 17.18 22.66 C15.11 24.59, 11.6 27.21, 9.07 27.29 C6.55 27.38, 3.68 25.65, 2.02 23.15 C0.36 20.65, -0.91 15.27, -0.89 12.29 C-0.86 9.32, 0.33 7.45, 2.17 5.33 C4.01 3.21, 9.19 0.26, 10.16 -0.41 C11.13 -1.08, 8.37 0.84, 8.01 1.32" stroke="#1e1e1e" stroke-width="1" fill="none"></path></g><g stroke-linecap="round"><g transform="translate(428.5 230) rotate(0 31.663580253929865 93.2382398821693)"><path d="M0.1 0.04 C10.91 30.93, 53.9 154.82, 64.64 185.95 M-1.31 -0.99 C9.33 30.05, 52.69 156.49, 63.5 187.46" stroke="#1e1e1e" stroke-width="1" fill="none"></path></g><g transform="translate(428.5 230) rotate(0 31.663580253929865 93.2382398821693)"><path d="M44.67 163.57 C49.97 169.97, 56.7 177.96, 61.82 188.47 M44.97 164.13 C50.89 172.72, 57.15 180.12, 63.92 187.19" stroke="#1e1e1e" stroke-width="1" fill="none"></path></g><g transform="translate(428.5 230) rotate(0 31.663580253929865 93.2382398821693)"><path d="M64.06 156.87 C63.93 165.17, 65.2 175.05, 61.82 188.47 M64.37 157.43 C63.54 168.53, 63.1 178.25, 63.92 187.19" stroke="#1e1e1e" stroke-width="1" fill="none"></path></g></g><mask></mask><g stroke-linecap="round"><g transform="translate(766.5 324) rotate(0 52.323031873079 119.14154539722017)"><path d="M0.62 -0.24 C17.88 39.49, 85.86 198.5, 102.98 238.45 M-0.51 -1.41 C17.16 38.46, 88.03 199.9, 105.15 239.69" stroke="#1e1e1e" stroke-width="1" fill="none"></path></g><g transform="translate(766.5 324) rotate(0 52.323031873079 119.14154539722017)"><path d="M84.09 216.24 C88.83 222.25, 95.76 229.61, 106.53 240.46 M83.63 217.9 C89.83 222.65, 94.97 227.79, 105.97 239.8" stroke="#1e1e1e" stroke-width="1" fill="none"></path></g><g transform="translate(766.5 324) rotate(0 52.323031873079 119.14154539722017)"><path d="M102.91 208.05 C102.88 216.24, 105.03 225.67, 106.53 240.46 M102.44 209.71 C104 216.43, 104.49 223.6, 105.97 239.8" stroke="#1e1e1e" stroke-width="1" fill="none"></path></g></g><mask></mask><g stroke-linecap="round"><g transform="translate(506.5 419) rotate(0 47.83486327975987 -159.1839205918694)"><path d="M-0.92 0.22 C15.35 -52.36, 80.32 -263.93, 96.59 -316.65 M0.8 -0.71 C17.05 -53.57, 80.03 -265.71, 95.95 -318.59" stroke="#1e1e1e" stroke-width="1" fill="none"></path></g><g transform="translate(506.5 419) rotate(0 47.83486327975987 -159.1839205918694)"><path d="M98.08 -287.66 C98.2 -293.93, 98.74 -300.67, 96.93 -319.33 M97.46 -287.76 C96.57 -299.7, 97.17 -310.72, 96.79 -319.18" stroke="#1e1e1e" stroke-width="1" fill="none"></path></g><g transform="translate(506.5 419) rotate(0 47.83486327975987 -159.1839205918694)"><path d="M78.42 -293.53 C82.72 -298.39, 87.5 -303.87, 96.93 -319.33 M77.8 -293.64 C83.97 -303.65, 91.63 -312.56, 96.79 -319.18" stroke="#1e1e1e" stroke-width="1" fill="none"></path></g></g><mask></mask><g transform="translate(530.5 141.39999999999998) rotate(0 28.125 28.80000000000001)"><text x="0" y="0" font-family="Cascadia, Segoe UI Emoji" font-size="16px" fill="#1e1e1e" text-anchor="start" style="white-space: pre;" direction="ltr" dominant-baseline="text-before-edge">merge </text><text x="0" y="19.2" font-family="Cascadia, Segoe UI Emoji" font-size="16px" fill="#1e1e1e" text-anchor="start" style="white-space: pre;" direction="ltr" dominant-baseline="text-before-edge">into</text><text x="0" y="38.4" font-family="Cascadia, Segoe UI Emoji" font-size="16px" fill="#1e1e1e" text-anchor="start" style="white-space: pre;" direction="ltr" dominant-baseline="text-before-edge">main</text></g><g transform="translate(1072.3125 177.80000000000007) rotate(0 42.1875 19.19999999999999)"><text x="0" y="0" font-family="Cascadia, Segoe UI Emoji" font-size="16px" fill="#1e1e1e" text-anchor="start" style="white-space: pre;" direction="ltr" dominant-baseline="text-before-edge">merge </text><text x="0" y="19.2" font-family="Cascadia, Segoe UI Emoji" font-size="16px" fill="#1e1e1e" text-anchor="start" style="white-space: pre;" direction="ltr" dominant-baseline="text-before-edge">into main</text></g><g transform="translate(452.3125 472.79999999999995) rotate(0 46.875 9.600000000000023)"><text x="0" y="0" font-family="Cascadia, Segoe UI Emoji" font-size="16px" fill="#1e1e1e" text-anchor="start" style="white-space: pre;" direction="ltr" dominant-baseline="text-before-edge">v0.1.1-rc0</text></g><g transform="translate(819.625 634.3999999999999) rotate(0 46.875 9.600000000000023)"><text x="0" y="0" font-family="Cascadia, Segoe UI Emoji" font-size="16px" fill="#1e1e1e" text-anchor="start" style="white-space: pre;" direction="ltr" dominant-baseline="text-before-edge">v0.2.0-rc0</text></g><g transform="translate(967.625 636.3999999999999) rotate(0 46.875 9.600000000000023)"><text x="0" y="0" font-family="Cascadia, Segoe UI Emoji" font-size="16px" fill="#1e1e1e" text-anchor="start" style="white-space: pre;" direction="ltr" dominant-baseline="text-before-edge">v0.2.0-rc1</text></g><g stroke-linecap="round"><g transform="translate(612.5 99) rotate(0 35.421773100220605 94.99932074849958)"><path d="M0.33 1 C12.28 32.57, 59.9 158.19, 71.79 189.52 M-0.95 0.48 C10.8 31.68, 58.79 156.04, 70.74 187.66" stroke="#1e1e1e" stroke-width="1" fill="none"></path></g><g transform="translate(612.5 99) rotate(0 35.421773100220605 94.99932074849958)"><path d="M52.76 164.65 C58.09 171.48, 63.25 179.55, 70.75 188.11 M50.71 164.77 C56.29 171.28, 60.68 176.34, 70.27 187.45" stroke="#1e1e1e" stroke-width="1" fill="none"></path></g><g transform="translate(612.5 99) rotate(0 35.421773100220605 94.99932074849958)"><path d="M71.93 157.33 C71.29 166.49, 70.48 176.84, 70.75 188.11 M69.88 157.45 C70.94 165.63, 70.79 172.42, 70.27 187.45" stroke="#1e1e1e" stroke-width="1" fill="none"></path></g></g><mask></mask><g transform="translate(667.3125 199.80000000000007) rotate(0 28.125 9.599999999999994)"><text x="0" y="0" font-family="Cascadia, Segoe UI Emoji" font-size="16px" fill="#1e1e1e" text-anchor="start" style="white-space: pre;" direction="ltr" dominant-baseline="text-before-edge">rebase</text></g></svg>